<svg width="110" height="110" xmlns="http://www.w3.org/2000/svg">
 <!-- Created with Method Draw - http://github.com/duopixel/Method-Draw/ -->
  <g id="svg_203">
   <path d="m55.021639,77.181361c-12.218902,0 -22.159722,-9.94082 -22.159722,-22.159722s9.94082,-22.159722 22.159722,-22.159722s22.159722,9.94082 22.159722,22.159722s-9.940823,22.159722 -22.159722,22.159722zm0,-39.8875c-9.775163,0 -17.727778,7.952615 -17.727778,17.727778s7.952615,17.727778 17.727778,17.727778s17.727778,-7.952615 17.727778,-17.727778s-7.952615,-17.727778 -17.727778,-17.727778z" id="svg_106" stroke="null"/>
   <path d="m54.999998,29.29472c-1.22387,0 -2.215972,-0.992102 -2.215972,-2.215972l0,-11.96625c0,-1.22387 0.992102,-2.215972 2.215972,-2.215972s2.215972,0.992102 2.215972,2.215972l0,11.96625c0,1.22387 -0.992102,2.215972 -2.215972,2.215972z" id="svg_107" stroke="null"/>
   <path d="m54.999998,97.10347c-1.22387,0 -2.215972,-0.992102 -2.215972,-2.215972l0,-11.96625c0,-1.22387 0.992102,-2.215972 2.215972,-2.215972s2.215972,0.992102 2.215972,2.215972l0,11.96625c0,1.22387 -0.992102,2.215972 -2.215972,2.215972z" id="svg_108" stroke="null"/>
   <path d="m27.078748,57.21597l-11.96625,0c-1.22387,0 -2.215972,-0.992102 -2.215972,-2.215972s0.992102,-2.215972 2.215972,-2.215972l11.96625,0c1.22387,0 2.215972,0.992102 2.215972,2.215972s-0.992102,2.215972 -2.215972,2.215972z" id="svg_109" stroke="null"/>
   <path d="m94.887498,57.21597l-11.96625,0c-1.22387,0 -2.215972,-0.992102 -2.215972,-2.215972s0.992102,-2.215972 2.215972,-2.215972l11.96625,0c1.22387,0 2.215972,0.992102 2.215972,2.215972s-0.992102,2.215972 -2.215972,2.215972z" id="svg_110" stroke="null"/>
   <path d="m74.620657,37.595311c-0.567085,0 -1.134279,-0.216294 -1.566978,-0.648994c-0.865291,-0.865397 -0.865291,-2.268557 0,-3.133956l8.584078,-8.584078c0.865397,-0.865397 2.268557,-0.865397 3.133956,0c0.865291,0.865397 0.865291,2.268557 0,3.133956l-8.584078,8.584078c-0.4327,0.432697 -0.999893,0.648994 -1.566978,0.648994z" id="svg_111" stroke="null"/>
   <path d="m26.795259,85.420709c-0.567085,0 -1.134279,-0.216294 -1.566978,-0.648994c-0.865291,-0.865397 -0.865291,-2.268557 0,-3.133956l8.584078,-8.584078c0.865397,-0.865397 2.268557,-0.865397 3.133956,0c0.865291,0.865397 0.865291,2.268557 0,3.133956l-8.584078,8.584078c-0.432697,0.432697 -0.999891,0.648994 -1.566978,0.648994z" id="svg_112" stroke="null"/>
   <path d="m35.379339,37.595311c-0.567085,0 -1.134279,-0.216294 -1.566978,-0.648994l-8.584078,-8.584078c-0.865291,-0.865397 -0.865291,-2.268557 0,-3.133956c0.865397,-0.865397 2.268557,-0.865397 3.133956,0l8.584078,8.584078c0.865291,0.865397 0.865291,2.268557 0,3.133956c-0.4327,0.432697 -0.999893,0.648994 -1.566978,0.648994z" id="svg_113" stroke="null"/>
   <path d="m83.204737,85.420709c-0.567085,0 -1.134279,-0.216294 -1.566978,-0.648994l-8.584078,-8.584078c-0.865291,-0.865397 -0.865291,-2.268557 0,-3.133956c0.865397,-0.865397 2.268557,-0.865397 3.133956,0l8.584078,8.584078c0.865291,0.865397 0.865291,2.268557 0,3.133956c-0.4327,0.432697 -0.999893,0.648994 -1.566978,0.648994z" id="svg_114" stroke="null"/>
 </g>
</svg>
