<svg width="90" height="90" xmlns="http://www.w3.org/2000/svg">
 <!-- Created with Method Draw - http://github.com/duopixel/Method-Draw/ -->
 <g>
  <path d="m47.211207,71.591666c-14.662638,0 -26.591667,-11.929028 -26.591667,-26.591667s11.929028,-26.591667 26.591667,-26.591667c0.710345,0 1.438111,0.029647 2.162953,0.088076c0.792686,0.064055 1.490155,0.547717 1.82796,1.267476s0.264013,1.565462 -0.193248,2.215972c-2.629411,3.73967 -4.019264,8.141101 -4.019264,12.728208c0,5.60442 2.096842,10.952616 5.904354,15.059738c3.787061,4.085267 8.918422,6.580615 14.448615,7.026407c0.792469,0.06384 1.490155,0.5475 1.82796,1.267476c0.337805,0.719759 0.264013,1.565462 -0.193248,2.215972c-4.981173,7.084399 -13.117946,11.314007 -21.766081,11.314007l-0.000001,0.000002zm-1.905541,-48.670238c-11.329916,0.96992 -20.254181,10.501847 -20.254181,22.078571c0,12.219008 9.94082,22.159722 22.159722,22.159722c5.958887,0 11.626712,-2.410087 15.758288,-6.583212c-5.082454,-1.209046 -9.714137,-3.899808 -13.325698,-7.795504c-4.569576,-4.92924 -7.086134,-11.347553 -7.086134,-18.072942c0.000002,-4.134605 0.941358,-8.14413 2.748003,-11.786634l0,-0.000001z" id="svg_176" stroke="null"/>
 </g>
</svg>
