<svg width="110" height="110" xmlns="http://www.w3.org/2000/svg">
 <!-- Created with Method Draw - http://github.com/duopixel/Method-Draw/ -->
  <g id="svg_205">
   <path  d="m21.287155,95.098224c-8.525217,-0.056157 -15.449049,-7.015369 -15.449049,-15.513213c0,-7.384555 5.093707,-13.557249 12.028142,-15.126716c-0.112746,-0.620428 -0.169444,-1.253518 -0.169444,-1.896777c0,-5.817468 4.732962,-10.550321 10.550321,-10.550321c1.932483,0 3.784464,0.515581 5.400351,1.48204c4.427834,-5.85523 11.259909,-9.284361 18.716092,-9.284361c11.65333,0 21.476321,8.584295 23.219234,19.895925c8.065793,0.54339 14.462248,7.27895 14.462248,15.48021c0,8.469927 -6.890721,15.428598 -15.360756,15.512023l-53.397139,0.00119zm6.95997,-38.655082c-3.373731,0 -6.118377,2.744646 -6.118377,6.118377c0,0.962346 0.218568,1.884875 0.649426,2.742048c0.338239,0.673015 0.311621,1.471869 -0.07098,2.120863c-0.382601,0.648885 -1.068817,1.058971 -1.821469,1.088727c-5.952611,0.235015 -10.615675,5.098358 -10.615675,11.071855c0,6.07012 4.948716,11.041232 11.031604,11.081268l53.360784,-0.001081c6.028353,-0.05951 10.950668,-5.030084 10.950668,-11.080185c0,-6.111561 -4.972088,-11.083648 -11.08354,-11.083648c-0.227656,0 -0.475222,0.009846 -0.778837,0.030946c-0.58602,0.040468 -1.168795,-0.154405 -1.612638,-0.54274s-0.714782,-0.93746 -0.752436,-1.526078c-0.641203,-9.994057 -8.996761,-17.82267 -19.022087,-17.82267c-6.723009,0 -12.821261,3.436705 -16.312715,9.193255c-0.353388,0.582774 -0.955421,0.970461 -1.632115,1.05118c-0.676911,0.080393 -1.352955,-0.154405 -1.833803,-0.637741c-1.15711,-1.163605 -2.697687,-1.804375 -4.33781,-1.804375l0,-0.000001z" id="svg_135" stroke="null"/>
   <path  d="m87.605315,67.435684c-1.004545,0 -1.914305,-0.687731 -2.154947,-1.707965c-0.280892,-1.191194 0.457044,-2.384441 1.648346,-2.665334c4.063625,-0.958235 7.745949,-3.043933 10.655711,-5.991672c-5.083968,-1.208613 -9.716735,-3.899699 -13.329159,-7.796371c-4.569576,-4.92924 -7.086134,-11.347661 -7.086134,-18.072942c0,-4.134605 0.941571,-8.144456 2.748324,-11.787069c-5.097817,0.432806 -9.854584,2.598141 -13.557464,6.205912c-4.153217,4.046314 -6.528462,9.461488 -6.688385,15.24801c-0.033975,1.223438 -1.04999,2.19617 -2.276349,2.153865c-1.22333,-0.033758 -2.187623,-1.05291 -2.153865,-2.276349c0.19195,-6.945471 3.042202,-13.444503 8.025757,-18.299948c4.99308,-4.864859 11.583,-7.544045 18.555521,-7.544045c0.710452,0 1.438217,0.029539 2.162521,0.087859c0.792686,0.063731 1.490372,0.547392 1.828394,1.267259c0.337805,0.719867 0.264013,1.565571 -0.193248,2.216081c-2.629519,3.739994 -4.019264,8.141318 -4.019264,12.728423c0,5.60442 2.09695,10.952724 5.904354,15.059847c3.787278,4.085267 8.918422,6.580615 14.448615,7.026298c0.792469,0.063946 1.490155,0.547609 1.82796,1.267368c0.337805,0.719867 0.264013,1.565571 -0.193248,2.215972c-3.759146,5.346574 -9.314657,9.112862 -15.642947,10.605071c-0.170956,0.040362 -0.342131,0.059729 -0.510494,0.059729l0.000001,0.000001z" id="svg_136" stroke="null"/>
  </g>
</svg>
