<svg width="90" height="90" xmlns="http://www.w3.org/2000/svg">
 <!-- Created with Method Draw - http://github.com/duopixel/Method-Draw/ -->

  <g id="svg_2">
   <path  d="m18.345576,70.444674c-8.52522,-0.05616 -15.44905,-7.01537 -15.44905,-15.51321c0,-7.38456 5.09382,-13.55725 12.02804,-15.12683c-0.11275,-0.62032 -0.16934,-1.2533 -0.16934,-1.89667c0,-5.81746 4.73285,-10.55032 10.55043,-10.55032c1.93227,0 3.78436,0.51569 5.40024,1.48204c4.42773,-5.85523 11.2598,-9.28436 18.7162,-9.28436c11.65344,0 21.47622,8.5843 23.21902,19.89593c8.06579,0.54339 14.46236,7.27895 14.46236,15.48021c0,8.46993 -6.89073,15.4286 -15.36065,15.51202l-53.39725,0.00119zm6.96008,-38.65508c-3.37373,0 -6.11849,2.74465 -6.11849,6.11838c0,0.96245 0.21846,1.88509 0.64932,2.74204c0.33835,0.67302 0.31163,1.47187 -0.07098,2.12087c-0.3826,0.64888 -1.0687,1.05897 -1.82146,1.08873c-5.95262,0.23501 -10.61557,5.09835 -10.61557,11.07185c0,6.07012 4.94882,11.04123 11.03171,11.08127l53.36078,-0.00108c6.02836,-0.05951 10.95056,-5.03009 10.95056,-11.08019c0,-6.11156 -4.97209,-11.08365 -11.08354,-11.08365c-0.22776,0 -0.47533,0.00985 -0.77905,0.03095c-0.58797,0.04101 -1.16869,-0.15451 -1.61253,-0.54274c-0.44385,-0.38834 -0.71468,-0.93757 -0.75244,-1.52608c-0.64109,-9.99405 -8.99643,-17.82267 -19.02187,-17.82267c-6.72322,0 -12.82137,3.43671 -16.31261,9.19315c-0.35338,0.58277 -0.95542,0.97046 -1.63222,1.05129c-0.67647,0.07985 -1.35306,-0.15441 -1.83369,-0.63774c-1.15722,-1.16361 -2.6978,-1.80438 -4.33792,-1.80438z" id="svg_164" stroke="null"/>
  </g>
</svg>
