<svg width="90" height="90" xmlns="http://www.w3.org/2000/svg">
 <!-- Created with Method Draw - http://github.com/duopixel/Method-Draw/ -->
  <g id="svg_208">
   <path  d="m71.720105,58.595439l-2.345381,-0.000866l0,0l-51.029144,-0.019259c-8.518618,0 -15.449049,-6.949584 -15.449049,-15.492004c0,-7.373951 5.093707,-13.538205 12.028033,-15.105833c-0.112638,-0.620213 -0.169336,-1.253192 -0.169336,-1.896345c0,-5.817576 4.732854,-10.550538 10.55043,-10.550538c1.932483,0 3.784358,0.515473 5.400134,1.481823c4.428049,-5.855662 11.260232,-9.285227 18.71631,-9.285227c11.652681,0 21.474914,8.582132 23.218585,19.891921c8.066551,0.542523 14.462789,7.275919 14.462789,15.47491c0,8.464192 -6.890829,15.418103 -15.360756,15.501202c-0.007466,0.000217 -0.01504,0.000217 -0.022614,0.000217l-0.000001,-0.000001zm-2.34365,-4.432811l2.333804,0.000866c6.045123,-0.065353 10.961271,-5.028786 10.961271,-11.069473c0,-6.108531 -4.972088,-11.078239 -11.08354,-11.078239c-0.261199,0 -0.54036,0.016988 -0.779052,0.033543c-0.587536,0.041332 -1.16858,-0.154405 -1.612532,-0.54274c-0.443844,-0.388336 -0.714673,-0.937569 -0.752436,-1.526078c-0.640988,-9.993299 -8.996435,-17.821371 -19.02187,-17.821371c-6.722901,0 -12.821043,3.437028 -16.312607,9.193905c-0.353388,0.582774 -0.955421,0.970461 -1.632223,1.051288c-0.677019,0.079744 -1.353064,-0.154405 -1.833695,-0.637741c-1.157001,-1.163385 -2.697578,-1.804047 -4.337916,-1.804047c-3.373731,0 -6.118485,2.744754 -6.118485,6.118594c0,0.962563 0.218459,1.885092 0.64932,2.742048c0.338348,0.673015 0.311621,1.471869 -0.07098,2.120863c-0.382601,0.648885 -1.068708,1.058971 -1.821469,1.088727c-5.952615,0.235013 -10.615571,5.089051 -10.615571,11.050537c0,6.098577 4.942223,11.060059 11.017105,11.060059l2.278729,0l48.752147,0.019259z" id="svg_177" stroke="null"/>
   <path  d="m37.234795,82.272798c-0.567519,0 -1.134928,-0.21662 -1.567736,-0.64986c-0.864965,-0.865831 -0.864207,-2.268992 0.001622,-3.133739l5.549235,-5.543609c0.865938,-0.864965 2.268992,-0.864316 3.133848,0.001516c0.864965,0.865831 0.864207,2.268992 -0.001622,3.133739l-5.549235,5.543609c-0.432591,0.432159 -0.999459,0.648345 -1.566112,0.648345l0,-0.000001z" id="svg_178" stroke="null"/>
   <path  d="m17.955837,69.641756c-0.567519,0 -1.134928,-0.21662 -1.567736,-0.64986c-0.864965,-0.865831 -0.864207,-2.268774 0.001622,-3.133739l3.499461,-3.496c0.865831,-0.864965 2.268883,-0.864316 3.133848,0.001516s0.864207,2.268774 -0.001622,3.133739l-3.499461,3.496c-0.432591,0.432159 -0.999353,0.648345 -1.566112,0.648345l0,-0.000001z" id="svg_179" stroke="null"/>
   <path  d="m48.757851,69.641756c-0.567519,0 -1.134928,-0.21662 -1.567736,-0.64986c-0.864965,-0.865831 -0.864207,-2.268774 0.001622,-3.133739l3.499461,-3.496c0.865831,-0.864965 2.268883,-0.864316 3.133848,0.001516s0.864207,2.268774 -0.001622,3.133739l-3.499461,3.496c-0.432591,0.432159 -0.999353,0.648345 -1.566112,0.648345l0,-0.000001z" id="svg_180" stroke="null"/>
   <path  d="m58.729726,75.217827c-0.567626,0 -1.135145,-0.21662 -1.567951,-0.650075c-0.864856,-0.865831 -0.863883,-2.268992 0.002056,-3.133739l9.083755,-9.072068c0.865938,-0.864965 2.268992,-0.864098 3.133848,0.001948c0.864856,0.865831 0.863883,2.268992 -0.002056,3.133739l-9.083755,9.072068c-0.432591,0.432157 -0.999244,0.648128 -1.565897,0.648128l0,-0.000001z" id="svg_181" stroke="null"/>
   <path  d="m25.268546,77.655397c-0.567519,0 -1.134928,-0.21662 -1.567736,-0.64986c-0.864965,-0.865831 -0.864207,-2.268774 0.001622,-3.133739l11.521325,-11.509638c0.865831,-0.864965 2.268883,-0.864316 3.133848,0.001516s0.864207,2.268774 -0.001622,3.133739l-11.521325,11.509638c-0.432591,0.432157 -0.999459,0.648345 -1.566112,0.648345l0,-0.000001z" id="svg_182" stroke="null"/>
  </g>
</svg>
