<svg width="110" height="110" xmlns="http://www.w3.org/2000/svg">
 <!-- Created with Method Draw - http://github.com/duopixel/Method-Draw/ -->
  <g id="svg_206">
   <path  d="m75.752035,54.254971c-0.557454,0 -1.11383,-0.219975 -1.527809,-0.656351c-0.800044,-0.843541 -0.764987,-2.175938 0.078554,-2.976091c3.210995,-3.045989 4.979445,-7.159928 4.979445,-11.583973c0,-8.802322 -7.161227,-15.963441 -15.963441,-15.963441c-7.731232,0 -14.337599,5.511799 -15.708732,13.105831c-0.206666,1.143909 -1.302316,1.90381 -2.445576,1.697577c-1.144341,-0.206557 -1.904351,-1.30156 -1.697685,-2.445684c1.733176,-9.600201 10.082241,-16.568071 19.851995,-16.568071c11.12379,0 20.173788,9.049889 20.173788,20.173788c0,5.590785 -2.234582,10.789555 -6.292149,14.638509c-0.407056,0.386279 -0.928373,0.577906 -1.44839,0.577906z" id="svg_123" stroke="null"/>
   <path  d="m57.079438,17.099134c-0.968406,0 -1.840079,-0.67204 -2.054751,-1.656894l-2.220083,-10.175727c-0.247998,-1.135903 0.471975,-2.25763 1.607878,-2.50552c1.138066,-0.248107 2.257954,0.472301 2.50552,1.608096l2.220083,10.175727c0.247998,1.135903 -0.471975,2.25763 -1.607878,2.50552c-0.151264,0.033 -0.302314,0.048798 -0.450769,0.048798z" id="svg_124" stroke="null"/>
   <path  d="m88.021466,36.771946c-0.968406,0 -1.840079,-0.67204 -2.054751,-1.656894c-0.247998,-1.135903 0.471975,-2.25763 1.607878,-2.50552l10.825155,-2.361719c1.138283,-0.248107 2.257954,0.472301 2.50552,1.608096c0.247998,1.135903 -0.471975,2.25763 -1.607878,2.50552l-10.825155,2.361719c-0.151267,0.033 -0.302316,0.048798 -0.450769,0.048798z" id="svg_125" stroke="null"/>
   <path  d="m76.691658,20.651289c-0.389311,0 -0.783164,-0.107769 -1.135254,-0.333694c-0.978361,-0.628002 -1.262499,-1.93032 -0.634495,-2.908787l5.940709,-9.255903c0.628002,-0.978469 1.930103,-1.262499 2.908896,-0.634603c0.978361,0.628002 1.262499,1.93032 0.634495,2.908787l-5.940709,9.255903c-0.402077,0.626489 -1.080719,0.968298 -1.773642,0.968298l0,-0.000001z" id="svg_126" stroke="null"/>
   <path  d="m41.956943,28.229309c-0.389311,0 -0.783164,-0.107769 -1.135036,-0.333694l-9.256012,-5.940603c-0.978578,-0.628002 -1.262714,-1.93032 -0.634712,-2.908787s1.93032,-1.262499 2.908681,-0.634603l9.256012,5.940603c0.978578,0.628002 1.262714,1.93032 0.634712,2.908787c-0.402079,0.626489 -1.080721,0.968298 -1.773644,0.968298l-0.000001,-0.000001z" id="svg_127" stroke="null"/>
   <path  d="m93.30907,61.373997c-0.389311,0 -0.783164,-0.107769 -1.135254,-0.333694l-9.255795,-5.940603c-0.978361,-0.628002 -1.262499,-1.93032 -0.634495,-2.908787s1.930103,-1.262823 2.908896,-0.634603l9.255795,5.940603c0.978361,0.628002 1.262499,1.93032 0.634495,2.908787c-0.402077,0.626489 -1.080719,0.968298 -1.773642,0.968298l0,-0.000001z" id="svg_128" stroke="null"/>
   <path  d="m23.140006,85.291892c-7.777759,-0.05118 -14.094146,-6.39981 -14.094146,-14.152251c0,-6.704506 4.602687,-12.314011 10.882502,-13.778847c-0.092404,-0.538304 -0.138715,-1.086888 -0.138715,-1.644019c0,-5.324285 4.331534,-9.655926 9.655926,-9.655926c1.738585,0 3.406408,0.456178 4.867348,1.312055c4.031598,-5.286847 10.225068,-8.380876 16.981835,-8.380876c10.579969,0 19.502071,7.77354 21.120336,18.031175c7.321798,0.533327 13.115786,6.6609 13.115786,14.116434c0,7.726796 -6.286305,14.074993 -14.012995,14.151168l-48.377875,0.001086l-0.000002,0.000001zm6.305567,-35.020693c-3.002598,0 -5.445579,2.442872 -5.445579,5.445579c0,0.856741 0.19433,1.677777 0.577797,2.440167c0.321575,0.639472 0.296256,1.3984 -0.067301,2.014933c-0.363342,0.616534 -1.015148,1.006169 -1.730362,1.034409c-5.340624,0.210885 -9.523921,4.574121 -9.523921,9.933355c0,5.446011 4.440168,9.905981 9.897649,9.941904l48.343251,-0.000973c5.407276,-0.053343 9.823423,-4.512878 9.823423,-9.940929c0,-5.483015 -4.460943,-9.943852 -9.943958,-9.943852c-0.20515,0 -0.42718,0.008764 -0.699199,0.027591c-0.560701,0.039819 -1.110366,-0.146939 -1.531704,-0.51569c-0.42177,-0.36886 -0.678859,-0.890608 -0.714782,-1.449687c-0.577582,-9.003145 -8.104528,-16.055627 -17.136131,-16.055627c-6.056485,0 -11.550323,3.096085 -14.695532,8.281979c-0.335857,0.553561 -0.907596,0.92188 -1.550531,0.998595c-0.643368,0.076391 -1.285654,-0.14683 -1.742049,-0.605714c-1.030079,-1.035708 -2.401429,-1.606039 -3.86107,-1.606039l-0.000001,-0.000001z" id="svg_129" stroke="null"/>
   <path  d="m41.608318,107.287904c-0.539062,0 -1.078121,-0.2058 -1.489288,-0.61729c-0.821685,-0.822549 -0.821035,-2.155487 0.001516,-2.977172l5.027487,-5.022401c0.822549,-0.821576 2.155379,-0.821035 2.977063,0.001407c0.821685,0.822549 0.821035,2.155487 -0.001516,2.977172l-5.027487,5.022401c-0.410952,0.410624 -0.949362,0.615883 -1.487775,0.615883z" id="svg_130" stroke="null"/>
   <path  d="m24.141956,95.844484c-0.539062,0 -1.078121,-0.2058 -1.489288,-0.617399c-0.821685,-0.822549 -0.821035,-2.155379 0.001516,-2.977172l3.170529,-3.167282c0.822334,-0.821468 2.155164,-0.820927 2.977063,0.001622c0.821685,0.822549 0.821035,2.155379 -0.001516,2.977172l-3.170529,3.167282c-0.410952,0.410518 -0.949365,0.615777 -1.487775,0.615777z" id="svg_131" stroke="null"/>
   <path  d="m52.048058,95.844484c-0.539062,0 -1.078121,-0.205691 -1.489288,-0.61729c-0.821685,-0.822549 -0.821035,-2.155487 0.001516,-2.977172l3.170312,-3.167282c0.822549,-0.821468 2.155379,-0.821144 2.977063,0.001407s0.821035,2.155487 -0.001516,2.977172l-3.170312,3.167282c-0.410952,0.410516 -0.949365,0.615883 -1.487775,0.615883z" id="svg_132" stroke="null"/>
   <path  d="m61.082472,100.896318c-0.539277,0 -1.078339,-0.205908 -1.489506,-0.617507c-0.821685,-0.822658 -0.820818,-2.155596 0.001948,-2.977172l8.229611,-8.219114c0.822549,-0.821685 2.155379,-0.82071 2.977063,0.001839c0.821685,0.822658 0.820818,2.155596 -0.001948,2.977172l-8.229611,8.219114c-0.41095,0.410516 -0.949145,0.615668 -1.487558,0.615668l0.000001,0z" id="svg_133" stroke="null"/>
   <path  d="m30.76715,103.104716c-0.539062,0 -1.078121,-0.2058 -1.489288,-0.61729c-0.821685,-0.822549 -0.821035,-2.155487 0.001516,-2.977172l10.438009,-10.427512c0.822549,-0.821685 2.155379,-0.820927 2.977063,0.001407c0.821685,0.822549 0.821035,2.155487 -0.001516,2.977172l-10.438009,10.427512c-0.410952,0.410624 -0.949365,0.615883 -1.487775,0.615883z" id="svg_134" stroke="null"/>
  </g>
</svg>
