<svg width="110" height="110" xmlns="http://www.w3.org/2000/svg">
 <!-- Created with Method Draw - http://github.com/duopixel/Method-Draw/ -->
  <g id="svg_211">
   <path  d="m23.968788,80.615845c-7.944606,-0.05237 -14.396245,-6.537118 -14.396245,-14.45554c0,-6.822987 4.667174,-12.535823 11.045454,-14.057465c-0.08656,-0.52835 -0.130058,-1.066113 -0.130058,-1.611774c0,-5.451963 4.435406,-9.887369 9.88726,-9.887369c1.757197,0 3.443413,0.454879 4.925344,1.309241c4.111233,-5.357394 10.406846,-8.490916 17.272898,-8.490916c10.766075,0 19.848532,7.895591 21.524361,18.323752c7.449476,0.574551 13.335652,6.820067 13.335652,14.414531c0,7.892453 -6.42091,14.376552 -14.313146,14.454459l-49.15152,0.001081zm6.406411,-35.580204c-3.008009,0 -5.455316,2.447309 -5.455316,5.455424c0,0.85804 0.194764,1.680589 0.578878,2.444818c0.338454,0.673015 0.311621,1.471869 -0.07098,2.120754c-0.382601,0.648994 -1.068817,1.058971 -1.821469,1.088727c-5.384121,0.212616 -9.601825,4.611775 -9.601825,10.01494c0,5.490807 4.476523,9.987241 9.979017,10.023596l49.114945,-0.001081c5.450773,-0.053669 9.903058,-4.549885 9.903058,-10.022514c0,-5.528246 -4.497515,-10.025652 -10.025544,-10.025652c-0.205582,0 -0.429562,0.008873 -0.704825,0.028023c-0.590565,0.041117 -1.168795,-0.154619 -1.612423,-0.542849c-0.443844,-0.388227 -0.714565,-0.93746 -0.752436,-1.525969c-0.58429,-9.106478 -8.197799,-16.239894 -17.33284,-16.239894c-6.126168,0 -11.682978,3.131576 -14.864542,8.377089c-0.353388,0.582774 -0.955421,0.970461 -1.632115,1.05118c-0.676476,0.080178 -1.352955,-0.154405 -1.833803,-0.637741c-1.031597,-1.037543 -2.405327,-1.608849 -3.86778,-1.608849l0,-0.000002z" id="svg_137" stroke="null"/>
   <path  d="m86.498806,54.748591c-0.945467,0 -1.821035,-0.60961 -2.115777,-1.560053c-0.362693,-1.168903 0.291064,-2.41041 1.459858,-2.772994c3.062327,-0.949794 5.868648,-2.64088 8.158846,-4.883145c-4.591217,-1.154945 -8.771485,-3.618915 -12.046535,-7.151813c-4.236316,-4.569685 -6.569363,-10.520133 -6.569363,-16.755043c0,-3.726361 0.824931,-7.343114 2.409653,-10.644349c-4.376545,0.441896 -8.482801,2.292796 -11.733183,5.322229c-3.735125,3.481283 -6.001303,8.191632 -6.380659,13.263374c-0.091105,1.220407 -1.157542,2.137633 -2.375028,2.044471c-1.2203,-0.091322 -2.135688,-1.154621 -2.044365,-2.375137c0.462671,-6.186762 3.225062,-11.931085 7.778193,-16.174866c4.576935,-4.265747 10.545127,-6.615023 16.805034,-6.615023c0.659597,0 1.334128,0.027376 2.004978,0.081477c0.792469,0.063946 1.490155,0.547609 1.82796,1.267368c0.337805,0.719867 0.264013,1.565462 -0.193248,2.215972c-2.399266,3.412466 -3.66739,7.428701 -3.66739,11.614487c0,5.113941 1.913441,9.99438 5.387582,13.742057c3.455749,3.727768 8.138072,6.004658 13.184168,6.411388c0.792469,0.063946 1.490155,0.547609 1.82796,1.267368c0.337805,0.719867 0.264013,1.565571 -0.193248,2.215972c-3.128113,4.449149 -7.698123,7.78263 -12.868219,9.386287c-0.218568,0.067731 -0.439948,0.099976 -0.657217,0.099976l0,-0.000003z" id="svg_138" stroke="null"/>
   <path  d="m43.956251,103.553755c-0.567626,0 -1.135036,-0.21662 -1.567627,-0.64986c-0.864965,-0.865831 -0.864316,-2.268992 0.001516,-3.133739l5.107772,-5.10258c0.865831,-0.864965 2.269207,-0.864316 3.133739,0.001516c0.864965,0.865831 0.864316,2.268992 -0.001516,3.133739l-5.107772,5.10258c-0.432589,0.432159 -0.99935,0.648345 -1.566112,0.648345l0,-0.000001z" id="svg_139" stroke="null"/>
   <path  d="m26.21073,91.927475c-0.567626,0 -1.135036,-0.21662 -1.567845,-0.64986c-0.864748,-0.865831 -0.864098,-2.268992 0.001731,-3.133956l3.221166,-3.217705c0.865831,-0.864965 2.268992,-0.864098 3.133956,0.001731c0.864748,0.865831 0.864098,2.268992 -0.001731,3.133956l-3.221166,3.217705c-0.432591,0.432159 -0.999353,0.64813 -1.566112,0.64813l0.000001,-0.000001z" id="svg_140" stroke="null"/>
   <path  d="m54.562623,91.927475c-0.567626,0 -1.134819,-0.21662 -1.567627,-0.64986c-0.864965,-0.865831 -0.864316,-2.268774 0.001516,-3.133739l3.220951,-3.217705c0.865831,-0.864965 2.268774,-0.864316 3.133739,0.001516s0.864316,2.268774 -0.001516,3.133739l-3.220951,3.217705c-0.432591,0.432159 -0.999353,0.648345 -1.566112,0.648345l0,-0.000001z" id="svg_141" stroke="null"/>
   <path  d="m63.741162,97.060134c-0.567626,0 -1.135254,-0.21662 -1.567845,-0.650075c-0.864965,-0.865831 -0.864098,-2.268992 0.001948,-3.133739l8.361184,-8.350364c0.866046,-0.865182 2.269424,-0.864098 3.133739,0.001948c0.864965,0.865831 0.864098,2.268992 -0.001948,3.133739l-8.361184,8.350364c-0.432589,0.432157 -0.99935,0.648128 -1.565895,0.648128l0.000001,-0.000001z" id="svg_142" stroke="null"/>
   <path  d="m32.941745,99.303806c-0.567626,0 -1.135036,-0.21662 -1.567627,-0.64986c-0.864965,-0.865831 -0.864316,-2.268992 0.001516,-3.133739l10.604856,-10.594036c0.865831,-0.864965 2.269207,-0.864316 3.133739,0.001516c0.864965,0.865831 0.864316,2.268992 -0.001516,3.133739l-10.604856,10.594036c-0.432591,0.432159 -0.999353,0.648345 -1.566112,0.648345l0,-0.000001z" id="svg_143" stroke="null"/>
  </g>
</svg>
