<svg width="110" height="110" xmlns="http://www.w3.org/2000/svg">
 <!-- Created with Method Draw - http://github.com/duopixel/Method-Draw/ -->
  <g id="svg_207">
   <path  d="m81.720106,68.595439l-2.345381,-0.000866c-1.223762,-0.000432 -2.21554,-0.99286 -2.215106,-2.216839c0.000432,-1.223545 0.992534,-2.215106 2.215972,-2.215106c0.000324,0 0.000541,0 0.000866,0l2.333804,0.000866c6.045121,-0.065353 10.961269,-5.028786 10.961269,-11.069473c0,-6.108531 -4.972088,-11.078239 -11.08354,-11.078239c-0.261199,0 -0.54036,0.016988 -0.779052,0.033543c-0.587968,0.041332 -1.168688,-0.154405 -1.612532,-0.54274s-0.714673,-0.937569 -0.752436,-1.526078c-0.640988,-9.993299 -8.996435,-17.821371 -19.02187,-17.821371c-6.722901,0 -12.821043,3.437028 -16.312607,9.193905c-0.353388,0.582774 -0.955421,0.970461 -1.632223,1.051288c-0.676476,0.079744 -1.353064,-0.154405 -1.833695,-0.637741c-1.157001,-1.163385 -2.697578,-1.804047 -4.337916,-1.804047c-3.373731,0 -6.118485,2.744754 -6.118485,6.118594c0,0.962563 0.218459,1.885092 0.64932,2.742048c0.338348,0.673015 0.311621,1.471869 -0.07098,2.120863c-0.382601,0.648885 -1.068708,1.058971 -1.821469,1.088727c-5.952615,0.235013 -10.615571,5.089051 -10.615571,11.050537c0,6.098577 4.942223,11.060059 11.017105,11.060059l2.278729,0c1.22387,0 2.215972,0.99221 2.215972,2.215972s-0.992102,2.215972 -2.215972,2.215972l-2.278729,0c-8.518618,0 -15.449049,-6.949584 -15.449049,-15.492004c0,-7.373951 5.093707,-13.538205 12.028033,-15.105833c-0.112638,-0.620213 -0.169336,-1.253192 -0.169336,-1.896345c0,-5.817576 4.732854,-10.550538 10.55043,-10.550538c1.932483,0 3.784358,0.515473 5.400134,1.481823c4.428049,-5.855662 11.260232,-9.285227 18.71631,-9.285227c11.652681,0 21.474914,8.582132 23.218585,19.891921c8.066549,0.542525 14.462789,7.275921 14.462789,15.474912c0,8.464192 -6.890829,15.418103 -15.360756,15.501202c-0.007466,0.000215 -0.01504,0.000215 -0.022614,0.000215l0.000001,0z" id="svg_165" stroke="null"/>
   <path  d="m34.177222,89.424279c-0.566653,0 -1.133197,-0.215971 -1.565788,-0.647913c-0.866046,-0.864748 -0.867021,-2.26791 -0.002271,-3.133956l9.519376,-9.532791l-5.735344,0c-0.906732,0 -1.721923,-0.552262 -2.058106,-1.394505c-0.336074,-0.842025 -0.125298,-1.803939 0.532137,-2.428265l13.960625,-13.257962c0.88747,-0.842674 2.289981,-0.806968 3.132766,0.080934c0.842783,0.887255 0.806645,2.289981 -0.080828,3.132658l-9.935194,9.435195l5.528461,0c0.89602,0 1.703852,0.539494 2.04696,1.367237c0.343216,0.827743 0.154187,1.780569 -0.4789,2.41463l-13.295833,13.31466c-0.432806,0.433243 -1.000432,0.650078 -1.56806,0.650078l-0.000001,0z" id="svg_166" stroke="null"/>
   <path  d="m56.763477,81.636131c-0.567519,0 -1.134928,-0.21662 -1.567736,-0.64986c-0.864965,-0.865831 -0.864207,-2.268774 0.001622,-3.133739l9.50834,-9.498816l-5.726254,0c-0.905756,0 -1.720299,-0.551179 -2.057023,-1.391908c-0.336832,-0.840729 -0.12811,-1.801993 0.52716,-2.427181l13.960625,-13.322666c0.885416,-0.844839 2.288036,-0.812271 3.132981,0.073253c0.844948,0.885416 0.812163,2.288036 -0.073253,3.132981l-9.958674,9.503576l5.548045,0c0.896452,0 1.70461,0.540143 2.047503,1.368536c0.342891,0.828175 0.152889,1.781651 -0.481389,2.415064l-13.295833,13.282416c-0.432593,0.432159 -0.999355,0.648345 -1.566114,0.648345l0,-0.000001z" id="svg_167" stroke="null"/>
   <path  d="m45.462018,92.272798c-0.567519,0 -1.134928,-0.21662 -1.567736,-0.64986c-0.864965,-0.865831 -0.864207,-2.268992 0.001622,-3.133739l5.549235,-5.543609c0.865831,-0.864965 2.268883,-0.864316 3.133848,0.001516s0.864207,2.268992 -0.001622,3.133739l-5.549235,5.543609c-0.432591,0.432159 -0.999459,0.648345 -1.566112,0.648345l0,-0.000001z" id="svg_168" stroke="null"/>
   <path  d="m25.296671,84.96009c-0.567519,0 -1.134928,-0.21662 -1.567736,-0.64986c-0.864965,-0.865831 -0.864207,-2.268774 0.001622,-3.133739l3.499461,-3.496c0.865831,-0.864748 2.268883,-0.864098 3.133848,0.001516c0.864965,0.865831 0.864207,2.268774 -0.001622,3.133739l-3.499461,3.496c-0.432591,0.432159 -0.999353,0.648345 -1.566112,0.648345l0,-0.000001z" id="svg_169" stroke="null"/>
   <path  d="m64.962574,88.062451c-0.567519,0 -1.134928,-0.21662 -1.567736,-0.64986c-0.864965,-0.865831 -0.864207,-2.268774 0.001622,-3.133739l11.521325,-11.509638c0.865831,-0.864965 2.268883,-0.864316 3.133848,0.001516s0.864207,2.268774 -0.001622,3.133739l-11.521325,11.509638c-0.432591,0.432159 -0.999459,0.648345 -1.566112,0.648345l0,-0.000001z" id="svg_170" stroke="null"/>
  </g>
</svg>
