<svg width="110" height="110" xmlns="http://www.w3.org/2000/svg">
 <!-- Created with Method Draw - http://github.com/duopixel/Method-Draw/ -->
  <g id="svg_209">
   <path  d="m81.71999,63.381204l-2.345381,-0.000866l0,0l-51.029036,-0.019259c-8.518616,0 -15.449049,-6.949584 -15.449049,-15.492004c0,-7.373951 5.093707,-13.538205 12.028033,-15.105833c-0.112638,-0.620213 -0.169336,-1.253192 -0.169336,-1.896345c0,-5.817576 4.732854,-10.550538 10.55043,-10.550538c1.932483,0 3.784358,0.515473 5.400134,1.481823c4.428049,-5.855662 11.260232,-9.285227 18.71631,-9.285227c11.652572,0 21.474914,8.582132 23.218693,19.891921c8.066657,0.542523 14.46268,7.275919 14.46268,15.47491c0,8.464192 -6.890938,15.418103 -15.360756,15.501202c-0.007574,0.000217 -0.015148,0.000217 -0.022723,0.000217l0.000001,-0.000001zm-2.34365,-4.432811l2.333696,0.000866c6.045232,-0.065353 10.961488,-5.028894 10.961488,-11.069473c0,-6.108531 -4.972088,-11.078239 -11.08354,-11.078239c-0.261199,0 -0.54036,0.016988 -0.778837,0.033543c-0.585588,0.04036 -1.16858,-0.154405 -1.612638,-0.54274c-0.443844,-0.388336 -0.714782,-0.937569 -0.752436,-1.526078c-0.641203,-9.993299 -8.996544,-17.821371 -19.021979,-17.821371c-6.722901,0 -12.821043,3.437028 -16.312607,9.193905c-0.353388,0.582774 -0.955421,0.970461 -1.632223,1.051288c-0.67637,0.080285 -1.353064,-0.154405 -1.833695,-0.637741c-1.157001,-1.163385 -2.697578,-1.804047 -4.337916,-1.804047c-3.373731,0 -6.118485,2.744754 -6.118485,6.118594c0,0.962563 0.218459,1.885092 0.64932,2.742048c0.338348,0.673015 0.311621,1.471869 -0.07098,2.120863c-0.382601,0.648885 -1.068708,1.058971 -1.821469,1.088727c-5.952611,0.235015 -10.615568,5.089053 -10.615568,11.050539c0,6.098577 4.942223,11.060059 11.017105,11.060059l2.278726,0l48.752038,0.019257z" id="svg_183" stroke="null"/>
   <path  d="m33.727204,93.288605c-0.567519,0 -1.134928,-0.21662 -1.567736,-0.64986c-0.864965,-0.865831 -0.864207,-2.268774 0.001622,-3.133739l13.717604,-13.703754c0.865831,-0.864748 2.268883,-0.864316 3.133848,0.001516s0.864207,2.268774 -0.001622,3.133739l-13.717604,13.703754c-0.432589,0.432157 -0.99935,0.648345 -1.566112,0.648345l0,-0.000001z" id="svg_184" stroke="null"/>
   <path  d="m47.437883,93.29553c-0.567519,0 -1.134928,-0.21662 -1.567736,-0.64986l-13.703754,-13.717604c-0.864965,-0.865831 -0.864207,-2.268774 0.001622,-3.133739c0.865938,-0.864748 2.268992,-0.864316 3.133848,0.001516l13.703754,13.717604c0.864965,0.865831 0.864207,2.268774 -0.001622,3.133739c-0.432589,0.432159 -0.99935,0.648345 -1.566112,0.648345l0,-0.000001z" id="svg_185" stroke="null"/>
   <path  d="m51.665867,86.407189c-0.000432,0 -0.000649,0 -0.001081,0l-22.159722,0.006493c-1.22387,-0.000649 -2.21554,-0.996538 -2.214891,-2.2203c0.000649,-1.223545 0.992643,-2.218137 2.215972,-2.218137c0.000324,0 0.000758,0 0.001081,0l22.159722,0.023046c1.22387,0.000649 2.21554,0.981769 2.214891,2.205531c-0.000649,1.22333 -0.992751,2.203368 -2.215972,2.203368l0,-0.000001z" id="svg_186" stroke="null"/>
   <path  d="m40.580379,97.48705c-0.000432,0 -0.000649,0 -0.001081,0c-1.22387,0 -2.21554,-0.978578 -2.214891,-2.20234l0.011253,-22.167079c0.000649,-1.223545 0.992751,-2.222248 2.215972,-2.222248c0.000432,0 0.000649,0 0.001081,0c1.22387,0 2.21554,1.008008 2.214891,2.23177l-0.011253,22.152365c-0.000649,1.223545 -0.992751,2.207532 -2.215972,2.207532z" id="svg_187" stroke="null"/>
   <path  d="m64.464622,83.467565c-0.763471,0 -1.50617,-0.39472 -1.917552,-1.102143c-0.615451,-1.057781 -0.256871,-2.414198 0.801125,-3.029651l13.40793,-7.800049c1.057996,-0.616317 2.414415,-0.256871 3.029651,0.801125c0.615451,1.057781 0.256871,2.414198 -0.801125,3.029651l-13.40793,7.800049c-0.350576,0.204069 -0.733826,0.301018 -1.112099,0.301018z" id="svg_188" stroke="null"/>
   <path  d="m77.981186,83.267174c-0.357066,0 -0.71911,-0.08656 -1.055184,-0.268773l-13.633423,-7.399269c-1.075527,-0.583858 -1.474357,-1.929022 -0.8905,-3.004763c0.583641,-1.075527 1.928587,-1.47414 3.004763,-0.8905l13.633423,7.399269c1.075527,0.583858 1.474357,1.929022 0.8905,3.004763c-0.401428,0.739665 -1.163168,1.159273 -1.949579,1.159273z" id="svg_189" stroke="null"/>
   <path  d="m71.162527,87.293578c-0.000432,0 -0.000649,0 -0.001081,0c-1.223979,0 -2.21554,-1.043714 -2.214891,-2.267476l0.007791,-15.245412c0.000649,-1.223545 0.992643,-2.209264 2.215972,-2.209264c0.000432,0 0.000649,0 0.001081,0c1.223979,0 2.21554,0.962454 2.214891,2.186216l-0.007791,15.286042c-0.000649,1.223547 -0.992643,2.249894 -2.215972,2.249894z" id="svg_190" stroke="null"/>
 </g>
</svg>
