<svg width="110" height="110" xmlns="http://www.w3.org/2000/svg">
 <!-- Created with Method Draw - http://github.com/duopixel/Method-Draw/ -->
  <g id="svg_214">
   <path  d="m81.720105,71.026306l-2.345381,-0.000866l0,0l-51.029144,-0.019259c-8.518618,0 -15.449049,-6.949584 -15.449049,-15.491897c0,-7.373951 5.093707,-13.538205 12.028033,-15.105833c-0.112746,-0.620213 -0.169336,-1.253409 -0.169336,-1.89656c0,-5.817576 4.732854,-10.550321 10.55043,-10.550321c1.932374,0 3.784464,0.515473 5.400134,1.481714c4.428049,-5.855662 11.260232,-9.285227 18.71631,-9.285227c11.652681,0 21.474914,8.582132 23.218585,19.892029c8.066551,0.542523 14.462789,7.275919 14.462789,15.474801c0,8.464192 -6.890829,15.418103 -15.360756,15.501202c-0.007466,0.000217 -0.01504,0.000217 -0.022614,0.000217l-0.000001,0zm-2.34365,-4.432811l2.333804,0.000866c6.045123,-0.065353 10.961271,-5.028786 10.961271,-11.069473c0,-6.108423 -4.972088,-11.07813 -11.08354,-11.07813c-0.262606,0 -0.541116,0.016879 -0.779052,0.033326c-0.587536,0.042848 -1.16858,-0.154296 -1.612532,-0.54274c-0.443844,-0.388227 -0.714673,-0.93746 -0.752436,-1.525861c-0.640988,-9.993299 -8.996435,-17.82148 -19.02187,-17.82148c-6.722901,0 -12.821043,3.436922 -16.312607,9.193905c-0.353388,0.582774 -0.955421,0.970569 -1.632223,1.051288c-0.676694,0.079853 -1.353172,-0.154513 -1.833695,-0.637741c-1.156893,-1.163385 -2.69747,-1.803939 -4.337916,-1.803939c-3.373731,0 -6.118485,2.744646 -6.118485,6.118377c0,0.96278 0.218459,1.885307 0.649211,2.742048c0.338454,0.673015 0.31173,1.471977 -0.070871,2.120971c-0.382601,0.648777 -1.068708,1.05908 -1.821469,1.088727c-5.952615,0.235013 -10.615571,5.08916 -10.615571,11.050643c0,6.098469 4.942223,11.059953 11.017105,11.059953l2.278729,0l48.752147,0.019259l0,0.000001z" id="svg_171" stroke="null"/>
   <path  d="m76.633432,89.841944c-0.000541,0 -0.000973,0 -0.001516,0l-12.492543,-0.005303c-1.223762,-0.000866 -2.215214,-0.990859 -2.214456,-2.214835c0.000758,-1.22333 0.99286,-2.211806 2.215972,-2.211806c0.000541,0 0.000973,0 0.001516,0l12.492543,0.007033c1.223762,0.000866 2.215214,0.989992 2.214456,2.213971c-0.000758,1.223327 -0.99286,2.21094 -2.215972,2.21094z" id="svg_172" stroke="null"/>
   <path  d="m55.498597,89.841944c-0.000324,0 -0.000541,0 -0.000866,0l-22.030314,-0.005303c-1.223762,-0.000432 -2.21554,-0.990209 -2.215106,-2.214186c0.000432,-1.223545 0.992534,-2.212455 2.215972,-2.212455c0.000324,0 0.000541,0 0.000866,0l22.030314,0.007033c1.223762,0.000432 2.21554,0.989343 2.215106,2.213322c-0.000432,1.223545 -0.992534,2.211589 -2.215972,2.211589z" id="svg_173" stroke="null"/>
   <path  d="m81.785567,80.534861c-0.000217,0 -0.000432,0 -0.000649,0l-28.70593,-0.005303c-1.22387,-0.000432 -2.215649,-0.990209 -2.215323,-2.213971c0.000324,-1.223545 0.992428,-2.212673 2.215972,-2.212673c0.000217,0 0.000432,0 0.000649,0l28.70593,0.007033c1.22387,0.000432 2.215649,0.989343 2.215323,2.213105c-0.000324,1.223547 -0.992428,2.211808 -2.215972,2.211808l0,0.000001z" id="svg_174" stroke="null"/>
   <path  d="m44.778831,80.534861c-0.000432,0 -0.000649,0 -0.00119,0l-15.853291,-0.005303c-1.223762,-0.000649 -2.215432,-0.990642 -2.214782,-2.214403c0.000649,-1.223545 0.992751,-2.212238 2.215972,-2.212238c0.000432,0 0.000649,0 0.00119,0l15.853291,0.007033c1.223762,0.000649 2.215432,0.989775 2.214782,2.213537c-0.000649,1.223547 -0.992751,2.211374 -2.215972,2.211374z" id="svg_175" stroke="null"/>
  </g>
</svg>
